<svg version="1.1"
     id="Capa_1"
     xmlns="http://www.w3.org/2000/svg"
     xmlns:xlink="http://www.w3.org/1999/xlink"
     x="0px" y="0px"
     viewBox="0 0 252 252"
     style="enable-background:new 0 0 252 252;"
     xml:space="preserve">
    <path d="M164.612,87.388c-3.515-3.515-9.213-3.515-12.728,0L126,113.272l-25.885-25.885c-3.515-3.515-9.213-3.515-12.728,0
		c-3.515,3.515-3.515,9.213,0,12.728L113.272,126l-25.885,25.885c-3.515,3.515-3.515,9.213,0,12.728
		c1.757,1.757,4.061,2.636,6.364,2.636s4.606-0.879,6.364-2.636L126,138.728l25.885,25.885c1.757,1.757,4.061,2.636,6.364,2.636
		s4.606-0.879,6.364-2.636c3.515-3.515,3.515-9.213,0-12.728L138.728,126l25.885-25.885
		C168.127,96.601,168.127,90.902,164.612,87.388z"/>
</svg>
