<svg width="50" height="50" viewBox="0 0 50 50" fill="none" xmlns="http://www.w3.org/2000/svg">
    <path
            d="M24.7851 49.8775C24.2756 49.7305 23.5961 49.119 23.3586 48.598C23.1661 48.1675 23.1436 47.7715 23.1436 43.707V39.2915L23.4266 38.714C23.8341 37.91 24.4341 37.514 25.3401 37.4575C26.1441 37.401 26.7101 37.6275 27.2421 38.1935C27.8876 38.873 27.8986 38.9745 27.8986 43.628C27.8986 46.3225 27.8531 48.066 27.7741 48.349C27.7061 48.598 27.4571 48.983 27.1851 49.255C26.5176 49.9115 25.6686 50.138 24.7851 49.8775Z" fill="#1C5D99"/>
    <path d="M13.203 46.5945C12.32 46.334 11.584 45.1 11.765 44.149C11.8445 43.7075 15.8295 36.688 16.271 36.201C16.588 35.8615 17.324 35.5215 17.754 35.5105C19.1355 35.499 20.2675 36.79 20.0295 38.0805C19.95 38.522 16.0895 45.3375 15.5685 45.9605C15.026 46.6055 14.109 46.855 13.203 46.5945Z" fill="#1C5D99"/>
    <path d="M36.8199 44.885C36.6274 44.7265 32.6534 37.877 32.6534 37.6955C32.6534 37.4805 33.0834 37.186 33.2989 37.254C33.4349 37.299 34.2839 38.669 35.4839 40.741C36.5709 42.6205 37.4994 44.2395 37.5444 44.3525C37.6234 44.5675 37.3519 45.0205 37.1369 45.0205C37.0579 45.0205 36.9219 44.953 36.8199 44.885Z" fill="#1C5D99"/>
    <path d="M4.91545 37.9785C4.32695 37.8085 3.94195 37.4915 3.68145 36.9485C3.27395 36.0995 3.42095 35.1935 4.07795 34.582C4.42895 34.265 10.6105 30.6535 11.471 30.2685C11.8445 30.11 12.105 30.0645 12.49 30.1215C13.5655 30.2685 14.256 31.0725 14.245 32.1935C14.245 33.2915 14.098 33.405 10.056 35.737C5.78745 38.205 5.75345 38.2165 4.91545 37.9785Z" fill="#1C5D99"/>
    <path d="M41.768 34.616C39.8435 33.495 38.2245 32.4875 38.1675 32.374C38.0315 32.057 38.258 31.57 38.5865 31.4795C38.824 31.423 39.4925 31.7625 42.0735 33.257C46.1495 35.5895 46.104 35.5665 46.1945 35.906C46.285 36.2795 45.9795 36.642 45.572 36.642C45.402 36.6425 43.851 35.816 41.768 34.616Z" fill="#1C5D99"/>
    <path d="M1.519 26.0905C0.953 25.7965 0.5 25.083 0.5 24.4715C0.5115 23.9505 0.885 23.2375 1.304 22.932L1.689 22.66L6.127 22.626C11.0745 22.592 11.086 22.592 11.652 23.339C12.354 24.256 12.0595 25.5695 11.0295 26.09C10.5315 26.339 10.4635 26.339 6.2745 26.339C2.085 26.34 2.017 26.34 1.519 26.0905Z" fill="#1C5D99"/>
    <path d="M40.296 25.049C39.9335 24.6865 39.9335 24.2565 40.296 23.9055L40.5675 23.6225H44.768H48.9686L49.263 23.917C49.4895 24.1435 49.5345 24.268 49.478 24.562C49.331 25.2865 49.478 25.264 44.825 25.298L40.5795 25.332L40.296 25.049Z" fill="#1C5D99"/>
    <path d="M11.765 18.403C11.1425 18.2105 4.3155 14.18 4.089 13.8745C3.7495 13.41 3.7155 12.663 3.9985 12.108C4.293 11.5195 5.0625 11.1115 5.674 11.202C5.889 11.2475 7.689 12.2095 9.761 13.3985C13.588 15.6175 13.769 15.7535 13.9275 16.5685C14.018 17.0215 13.6105 17.9045 13.1805 18.199C12.818 18.46 12.2065 18.5505 11.765 18.403Z" fill="#1C5D99"/>
    <path d="M38.36 17.69C37.7485 17.418 37.59 16.5465 38.088 16.0935C38.201 15.9915 39.843 15.0065 41.7335 13.9195C45.379 11.8025 45.719 11.6665 46.2285 12.1195C46.557 12.414 46.6475 13.025 46.421 13.365C46.3305 13.5235 45.821 13.886 45.3115 14.1915C42.866 15.6295 39.141 17.724 38.9375 17.7805C38.813 17.8145 38.5525 17.769 38.36 17.69Z" fill="#1C5D99"/>
    <path d="M17.4259 12.6405C17.2334 12.584 16.9504 12.3915 16.7919 12.2215C16.4294 11.8365 12.5464 5.1 12.4444 4.6815C12.2404 3.9115 12.9539 3.017 13.8259 2.938C14.7769 2.8475 14.8899 2.9835 17.1544 6.9235C18.2754 8.8595 19.2374 10.592 19.3054 10.7955C19.4754 11.305 19.2599 11.9845 18.8299 12.3465C18.6374 12.505 18.4224 12.641 18.3544 12.641C18.2749 12.641 18.1164 12.6635 17.9919 12.6865C17.8674 12.7195 17.6069 12.697 17.4259 12.6405Z" fill="#1C5D99"/>
    <path d="M32.767 12.267C32.2915 12.1085 31.929 11.5085 32.02 11.033C32.054 10.863 33.0165 9.1085 34.1485 7.1385C35.6655 4.52301 36.2995 3.51551 36.526 3.40251C36.9335 3.18751 37.409 3.19851 37.7375 3.42501C38.066 3.66301 38.349 4.31951 38.247 4.63651C38.0995 5.13451 34.0805 11.9845 33.854 12.1315C33.469 12.369 33.186 12.4025 32.767 12.267Z" fill="#1C5D99"/>
    <path d="M25.0115 10.3875C24.887 10.331 24.6605 10.1495 24.502 9.98002L24.219 9.67452V5.21402V0.753518L24.5925 0.391018C24.9095 0.0740181 25.034 0.0175171 25.521 0.0175171C26.008 0.0175171 26.1325 0.0740181 26.4495 0.391018L26.823 0.753518V5.22552V9.69752L26.472 10.0485C26.0985 10.4215 25.4305 10.5685 25.0115 10.3875Z" fill="#1C5D99"/>
</svg>
