<svg fill="none" xmlns="http://www.w3.org/2000/svg">
  <rect x="2" width="90" height="90" fill="white"/>
  <rect x="48.5" y="0.5" width="89" height="89" stroke="#222222"/>
  <path d="M11.5568 58C19.5341 58 24.3665 53.0653 24.3665 44.8835C24.3665 36.7273 19.5341 31.8182 11.6335 31.8182H2.27557V58H11.5568ZM7.81108 53.2571V36.5611H11.3395C16.2486 36.5611 18.8438 39.0668 18.8438 44.8835C18.8438 50.7259 16.2486 53.2571 11.3267 53.2571H7.81108ZM37.2369 58.3835C43.1942 58.3835 46.9016 54.3054 46.9016 48.2585C46.9016 42.1733 43.1942 38.108 37.2369 38.108C31.2795 38.108 27.5721 42.1733 27.5721 48.2585C27.5721 54.3054 31.2795 58.3835 37.2369 58.3835ZM37.2624 54.1648C34.5138 54.1648 33.1076 51.6463 33.1076 48.2202C33.1076 44.794 34.5138 42.2628 37.2624 42.2628C39.9599 42.2628 41.3661 44.794 41.3661 48.2202C41.3661 51.6463 39.9599 54.1648 37.2624 54.1648ZM57.6786 58.3196C60.8491 58.3196 62.4982 56.4915 63.2525 54.8551H63.4826V58H68.8519V31.8182H63.4187V41.6619H63.2525C62.5238 40.0639 60.9514 38.108 57.6658 38.108C53.3576 38.108 49.7141 41.4574 49.7141 48.2074C49.7141 54.7784 53.2042 58.3196 57.6786 58.3196ZM59.4045 53.9858C56.7326 53.9858 55.2752 51.608 55.2752 48.1818C55.2752 44.7812 56.707 42.4418 59.4045 42.4418C62.0508 42.4418 63.5337 44.679 63.5337 48.1818C63.5337 51.6847 62.0252 53.9858 59.4045 53.9858ZM82.2017 58.3835C88.1591 58.3835 91.8665 54.3054 91.8665 48.2585C91.8665 42.1733 88.1591 38.108 82.2017 38.108C76.2443 38.108 72.5369 42.1733 72.5369 48.2585C72.5369 54.3054 76.2443 58.3835 82.2017 58.3835ZM82.2273 54.1648C79.4787 54.1648 78.0724 51.6463 78.0724 48.2202C78.0724 44.794 79.4787 42.2628 82.2273 42.2628C84.9247 42.2628 86.331 44.794 86.331 48.2202C86.331 51.6463 84.9247 54.1648 82.2273 54.1648Z" fill="black"/>
</svg>