<svg width="24" height="24" viewBox="0 0 24 24" fill="none" xmlns="http://www.w3.org/2000/svg">
    <path d="M9 4L9 13C9 14.1046 9.89543 15 11 15L20 15C21.1046 15 22 14.1046 22 13L22 4C22 2.89543 21.1046 2 20 2L11 2C9.89543 2 9 2.89543 9 4Z" stroke="black" stroke-width="2" stroke-linecap="round" stroke-linejoin="round"/>
    <path d="M15 19L15 20C15 20.5304 14.7893 21.0391 14.4142 21.4142C14.0391 21.7893 13.5304 22 13 22L4 22C3.46957 22 2.96086 21.7893 2.58579 21.4142C2.21071 21.0391 2 20.5304 2 20L2 11C2 10.4696 2.21071 9.96086 2.58579 9.58579C2.96086 9.21071 3.46957 9 4 9L5 9" stroke="black" stroke-width="2" stroke-linecap="round" stroke-linejoin="round"/>
</svg>
