<svg width="115" height="75" viewBox="0 0 115 75" fill="none" xmlns="http://www.w3.org/2000/svg">
  <rect x="1.6665" width="75" height="75" fill="white"/>
  <rect x="40.5" y="0.5" width="74" height="74" stroke="#222222"/>
  <path d="M9.63068 46C16.2784 46 20.3054 41.8878 20.3054 35.0696C20.3054 28.2727 16.2784 24.1818 9.6946 24.1818H1.89631V46H9.63068ZM6.50923 42.0476V28.1342H9.44957C13.5405 28.1342 15.7031 30.2223 15.7031 35.0696C15.7031 39.9382 13.5405 42.0476 9.43892 42.0476H6.50923ZM31.0307 46.3196C35.9952 46.3196 39.0847 42.9212 39.0847 37.8821C39.0847 32.8111 35.9952 29.4233 31.0307 29.4233C26.0662 29.4233 22.9767 32.8111 22.9767 37.8821C22.9767 42.9212 26.0662 46.3196 31.0307 46.3196ZM31.052 42.804C28.7615 42.804 27.5897 40.7053 27.5897 37.8501C27.5897 34.995 28.7615 32.8857 31.052 32.8857C33.2999 32.8857 34.4718 34.995 34.4718 37.8501C34.4718 40.7053 33.2999 42.804 31.052 42.804ZM48.0655 46.2663C50.7076 46.2663 52.0819 44.7429 52.7104 43.3793H52.9022V46H57.3766V24.1818H52.8489V32.3849H52.7104C52.1032 31.0533 50.7928 29.4233 48.0549 29.4233C44.4647 29.4233 41.4284 32.2145 41.4284 37.8395C41.4284 43.3153 44.3368 46.2663 48.0655 46.2663ZM49.5037 42.6548C47.2772 42.6548 46.0627 40.6733 46.0627 37.8182C46.0627 34.9844 47.2559 33.0348 49.5037 33.0348C51.709 33.0348 52.9448 34.8991 52.9448 37.8182C52.9448 40.7372 51.6877 42.6548 49.5037 42.6548ZM68.5014 46.3196C73.4659 46.3196 76.5554 42.9212 76.5554 37.8821C76.5554 32.8111 73.4659 29.4233 68.5014 29.4233C63.5369 29.4233 60.4474 32.8111 60.4474 37.8821C60.4474 42.9212 63.5369 46.3196 68.5014 46.3196ZM68.5227 42.804C66.2322 42.804 65.0604 40.7053 65.0604 37.8501C65.0604 34.995 66.2322 32.8857 68.5227 32.8857C70.7706 32.8857 71.9425 34.995 71.9425 37.8501C71.9425 40.7053 70.7706 42.804 68.5227 42.804Z" fill="black"/>
</svg>

